<?xml version="1.0" encoding="utf-8"?>
<svg viewBox="0 20.848 326.916 285.22" width="326.916px" height="285.22px" xmlns="http://www.w3.org/2000/svg" xmlns:xlink="http://www.w3.org/1999/xlink" xmlns:bx="https://boxy-svg.com">
  <defs>
    <radialGradient gradientUnits="userSpaceOnUse" cx="163.54" cy="227.151" r="140.04" id="gradient-0-1" gradientTransform="matrix(2.527042, 0, 0, 2.133426, -249.676483, -210.314896)" xlink:href="#gradient-0"/>
    <linearGradient id="gradient-0" bx:pinned="true">
      <title>1</title>
      <stop offset="0" style="stop-color: rgb(170, 0, 0);"/>
      <stop offset="1" style="stop-color: rgb(255, 0, 0);"/>
    </linearGradient>
  </defs>
  <path style="fill:#030303;" d="M 163.981 306.068 L 25.668 180.198 C 21.248 175.486 17.274 170.26 13.866 164.668 C 10.504 159.162 7.705 153.284 5.538 147.194 C 1.867 136.858 0 126.203 0 115.51 C 0 63.31 42.462 20.848 94.662 20.848 C 120.939 20.848 145.721 31.709 163.461 50.488 C 181.192 31.71 205.985 20.848 232.26 20.848 C 284.454 20.848 326.916 63.31 326.916 115.51 C 326.916 126.02 325.114 136.512 321.563 146.687 C 319.299 153.163 316.32 159.418 312.683 165.262 C 309.635 170.18 306.119 174.84 302.225 179.122 L 301.476 179.871 L 163.981 306.068 Z M 42.445 163.844 L 163.918 274.345 L 285.249 162.987 C 288.051 159.862 290.584 156.48 292.785 152.923 C 295.518 148.526 297.76 143.826 299.464 138.96 C 302.14 131.272 303.501 123.378 303.501 115.505 C 303.501 76.222 271.543 44.264 232.266 44.264 C 208.553 44.264 186.464 56.015 173.176 75.702 L 163.467 90.08 L 153.758 75.707 C 140.46 54.959 118.374 43.809 94.662 44.263 C 55.392 45.014 23.421 76.221 23.421 115.504 C 23.421 123.515 24.828 131.528 27.601 139.339 C 29.231 143.914 31.338 148.334 33.862 152.473 C 36.355 156.565 39.243 160.385 42.445 163.844 Z"/>
  <path style="fill: url(#gradient-0-1);" d="M 33.862 152.473 C 31.338 148.334 29.231 143.914 27.601 139.339 C 24.828 131.528 23.421 123.515 23.421 115.504 C 23.421 76.221 55.392 45.014 94.662 44.263 C 118.374 43.809 140.46 54.959 153.758 75.707 L 163.467 90.08 L 173.176 75.702 C 186.464 56.015 208.553 44.264 232.266 44.264 C 271.543 44.264 303.501 76.222 303.501 115.505 C 303.501 123.378 302.14 131.272 299.464 138.96 C 297.76 143.826 295.518 148.526 292.785 152.923 C 290.584 156.48 288.051 159.862 285.249 162.987 L 163.918 274.345 L 42.445 163.844 C 39.243 160.385 36.355 156.565 33.862 152.473 Z"/>
</svg>